<svg width="258" height="54" viewBox="0 0 258 54" fill="none" xmlns="http://www.w3.org/2000/svg">
<g filter="url(#filter0_d_68_363)">
<path d="M102.526 36.5284H98.8927V34.6589H108.038V36.5284H104.405V45.7509H102.401V36.5284H102.526ZM117.058 45.7509H110.419V34.6589H116.808V36.5284H112.298V39.2702H116.307V41.1397H112.298V44.0061H116.933V45.7509H117.058ZM126.705 34.6589H128.96L125.202 40.018L129.086 45.6263H126.83L123.949 41.5136L121.067 45.6263H118.812L122.696 40.018L118.938 34.6589H121.193L123.949 38.6471L126.705 34.6589ZM140.486 45.7509H138.482V41.015H133.47V45.7509H131.466V34.6589H133.47V39.1456H138.607V34.6589H140.486V45.7509ZM143.368 40.2673C143.368 38.6471 143.869 37.2762 144.996 36.1545C146.124 35.0328 147.502 34.5343 149.131 34.5343C150.759 34.5343 152.137 35.0328 153.265 36.1545C154.392 37.2762 154.893 38.6471 154.893 40.2673C154.893 41.8874 154.392 43.2584 153.265 44.38C152.137 45.5017 150.759 46.0002 149.131 46.0002C147.502 46.0002 146.124 45.5017 144.996 44.38C143.869 43.2584 143.368 41.8874 143.368 40.2673ZM145.372 40.2673C145.372 41.3889 145.748 42.2613 146.374 43.0091C147.001 43.7569 148.003 44.1308 149.005 44.1308C150.133 44.1308 151.01 43.7569 151.761 43.0091C152.388 42.2613 152.764 41.3889 152.764 40.2673C152.764 39.1456 152.388 38.1486 151.636 37.5254C150.884 36.7776 150.007 36.4038 149.005 36.4038C147.878 36.4038 147.001 36.7776 146.374 37.5254C145.748 38.1486 145.372 39.1456 145.372 40.2673ZM165.918 45.7509H164.039V36.5284H160.782L160.531 38.6471C160.406 39.8934 160.281 41.015 160.03 41.8874C159.779 42.7598 159.654 43.5076 159.404 44.0061C159.153 44.5046 158.902 45.0032 158.527 45.2524C158.151 45.5017 157.9 45.7509 157.524 45.7509C157.149 45.8756 156.773 45.8756 156.272 45.7509V43.8815C156.522 43.8815 156.647 43.8815 156.898 43.8815C157.023 43.8815 157.274 43.6322 157.399 43.383C157.65 43.1337 157.775 42.7598 157.9 42.2613C158.276 41.1397 158.527 39.3949 158.777 36.9023L158.902 34.6589H165.918V45.7509ZM168.8 40.2673C168.8 38.6471 169.301 37.2762 170.428 36.1545C171.556 35.0328 172.934 34.5343 174.563 34.5343C176.191 34.5343 177.569 35.0328 178.697 36.1545C179.824 37.2762 180.326 38.6471 180.326 40.2673C180.326 41.8874 179.824 43.2584 178.697 44.38C177.569 45.5017 176.191 46.0002 174.563 46.0002C172.934 46.0002 171.556 45.5017 170.428 44.38C169.301 43.2584 168.8 41.8874 168.8 40.2673ZM170.929 40.2673C170.929 41.3889 171.305 42.2613 171.932 43.0091C172.558 43.7569 173.56 44.1308 174.563 44.1308C175.69 44.1308 176.567 43.7569 177.319 43.0091C177.945 42.2613 178.321 41.3889 178.321 40.2673C178.321 39.1456 177.945 38.1486 177.194 37.5254C176.442 36.7776 175.565 36.4038 174.563 36.4038C173.435 36.4038 172.558 36.7776 171.932 37.5254C171.18 38.1486 170.929 39.1456 170.929 40.2673ZM185.212 45.7509H183.207V34.6589H189.471V36.5284H185.212V45.7509ZM194.107 45.7509H192.102V34.6589H194.107V45.7509ZM196.988 32.7895C196.988 32.5403 197.113 32.291 197.239 32.0417C197.489 31.9171 197.74 31.7925 197.99 31.7925C198.241 31.7925 198.491 31.9171 198.742 32.0417C198.993 32.1664 198.993 32.4156 198.993 32.7895C198.993 33.1634 198.867 33.4127 198.742 33.5373C198.617 33.6619 198.366 33.7865 197.99 33.7865C197.74 33.7865 197.489 33.6619 197.239 33.5373C197.113 33.288 196.988 33.0388 196.988 32.7895ZM200.245 45.7509H198.241V34.6589H200.245V45.7509ZM199.619 32.7895C199.619 32.5403 199.744 32.291 199.869 32.0417C200.12 31.9171 200.371 31.7925 200.621 31.7925C200.872 31.7925 201.122 31.9171 201.373 32.0417C201.623 32.291 201.623 32.4156 201.623 32.7895C201.623 33.1634 201.498 33.4127 201.373 33.5373C201.248 33.7865 200.997 33.7865 200.621 33.7865C200.245 33.7865 199.995 33.6619 199.869 33.5373C199.744 33.288 199.619 33.0388 199.619 32.7895ZM215.905 43.2584L216.657 44.7539C216.281 45.1278 215.78 45.3771 215.154 45.6263C214.527 45.8756 213.776 46.0002 213.149 46.0002C211.395 46.0002 210.017 45.5017 209.015 44.38C208.013 43.383 207.386 42.0121 207.386 40.2673C207.386 38.6471 207.887 37.2762 208.89 36.1545C209.892 35.0328 211.27 34.5343 213.024 34.5343C214.402 34.5343 215.53 34.9082 216.407 35.656L215.53 37.1515C214.778 36.653 213.901 36.4038 213.024 36.4038C212.022 36.4038 211.145 36.7776 210.393 37.4008C209.767 38.1486 209.391 39.021 209.391 40.2673C209.391 41.3889 209.767 42.386 210.393 43.1337C211.145 43.8815 212.022 44.2554 213.149 44.2554C214.277 44.1308 215.154 43.8815 215.905 43.2584ZM228.183 45.7509H226.304V41.015H221.167V45.7509H219.163V34.6589H221.167V39.1456H226.304V34.6589H228.183V45.7509ZM239.083 34.6589H241.087L237.329 43.1337C236.953 44.0061 236.452 44.6293 236.076 45.1278C235.575 45.5017 235.074 45.7509 234.322 45.7509C233.57 45.7509 233.194 45.6263 232.818 45.2524L233.445 43.6322C233.695 43.7569 233.946 43.8815 234.322 43.8815C234.823 43.8815 235.199 43.6322 235.449 43.1337L235.575 42.7598L230.689 34.6589H232.944L236.577 40.8904L239.083 34.6589Z" fill="white"/>
<path d="M96.6447 15.715L107.419 28.8011H100.528L91.884 17.9583V28.8011H86.4969V4.24914H91.884V14.2195L100.153 4.24914H106.793L96.6447 15.715ZM206.516 9.35893H214.033V28.8011H219.42V9.35893H226.937V4.24914H206.391V9.35893H206.516ZM122.954 18.9554L130.596 28.8011H124.081L117.692 20.077H115.688V28.8011H110.3V4.24914H110.927C112.054 4.24914 113.307 4.24914 114.685 4.24914C116.063 4.24914 117.191 4.24914 118.068 4.24914C125.585 4.24914 127.213 8.48653 127.213 12.1008C127.213 13.9702 126.712 15.5904 125.71 16.8367C124.833 17.7091 123.956 18.4569 122.954 18.9554ZM116.314 9.35893C116.063 9.35893 115.938 9.35893 115.688 9.35893V14.9672H117.692C118.82 14.9672 119.822 14.718 120.573 14.0948C121.2 13.5963 121.576 12.8485 121.576 11.9761C121.576 10.7299 121.2 9.2343 117.817 9.2343C117.692 9.2343 117.567 9.2343 117.316 9.2343C117.066 9.35893 116.69 9.35893 116.314 9.35893ZM197.872 4.24914L208.27 28.8011H202.507L200.127 22.8189H190.982L188.601 28.8011H183.089L193.362 4.24914H197.872ZM195.492 11.7269L192.986 17.7091H197.997L195.492 11.7269ZM253.497 16.5874C253.497 20.2017 252.244 23.3174 249.864 25.6853C247.483 28.0533 244.351 29.2996 240.718 29.2996C237.085 29.2996 233.953 28.1779 231.573 25.81C229.192 23.442 227.94 20.4509 227.94 16.7121C227.94 13.2224 229.192 10.1067 231.573 7.73876C233.953 5.3708 237.085 4.12451 240.718 4.12451C244.351 4.12451 247.483 5.24617 249.864 7.61413C252.244 9.73282 253.497 12.8485 253.497 16.5874ZM245.98 21.9465C247.358 20.4509 247.985 18.7061 247.985 16.4628C247.985 14.2195 247.358 12.4747 245.855 10.9791C244.477 9.60819 242.723 8.86042 240.718 8.86042C238.588 8.86042 236.96 9.60819 235.582 10.9791C234.204 12.35 233.577 14.2195 233.577 16.4628C233.577 18.7061 234.204 20.4509 235.582 21.8218C236.96 23.3174 238.588 23.9405 240.718 23.9405C242.973 24.0652 244.602 23.442 245.98 21.9465ZM180.082 4.24914L173.818 20.4509L167.303 4.24914H161.54L171.688 28.8011H175.697L185.594 4.24914H180.082Z" fill="white"/>
<path d="M157.102 6.49432C155.595 4.99773 153.585 4.12472 151.45 4.12472C149.315 4.12472 147.306 4.99773 145.799 6.49432L145.422 6.86847L144.919 6.3696C143.412 4.87301 141.403 4 139.268 4C137.132 4 135.123 4.87301 133.616 6.3696C132.109 7.8662 131.229 9.86165 131.229 11.9818C131.229 14.102 132.109 16.0975 133.616 17.594L144.543 28.4443C144.794 28.6938 145.045 28.8185 145.422 28.8185C145.799 28.8185 146.05 28.6938 146.301 28.4443L157.228 17.594C158.735 16.0975 159.614 14.102 159.614 11.9818C159.614 9.86165 158.735 7.99091 157.102 6.49432Z" fill="#00B5FF"/>
<mask id="mask0_68_363" style="mask-type:alpha" maskUnits="userSpaceOnUse" x="131" y="4" width="29" height="25">
<path d="M157.102 6.49432C155.595 4.99773 153.585 4.12472 151.45 4.12472C149.315 4.12472 147.306 4.99773 145.799 6.49432L145.422 6.86847L144.919 6.3696C143.412 4.87301 141.403 4 139.268 4C137.132 4 135.123 4.87301 133.616 6.3696C132.109 7.8662 131.229 9.86165 131.229 11.9818C131.229 14.102 132.109 16.0975 133.616 17.594L144.543 28.4443C144.794 28.6938 145.045 28.8185 145.422 28.8185C145.799 28.8185 146.05 28.6938 146.301 28.4443L157.228 17.594C158.735 16.0975 159.614 14.102 159.614 11.9818C159.614 9.86165 158.735 7.99091 157.102 6.49432Z" fill="#00B5FF"/>
</mask>
<g mask="url(#mask0_68_363)">
<rect x="130.293" y="14.3228" width="30.0675" height="15.0844" fill="#FFBC00"/>
</g>
<path d="M11.2348 18.4002V44.8002C11.2348 45.5202 10.7525 46.0002 10.029 46.0002H5.2058C4.48232 46.0002 4 45.5202 4 44.8002V18.4002C4 17.6802 4.48232 17.2002 5.2058 17.2002H10.029C10.7525 17.2002 11.2348 17.8002 11.2348 18.4002ZM76.7942 17.2002H71.971C71.2476 17.2002 70.7652 17.6802 70.7652 18.4002V44.8002C70.7652 45.5202 71.2476 46.0002 71.971 46.0002H76.7942C77.5177 46.0002 78 45.5202 78 44.8002V18.4002C78 17.8002 77.5177 17.2002 76.7942 17.2002Z" fill="#FFBC57"/>
<path d="M68.3536 25.6V32.8C68.3536 33.52 67.8713 34 67.1479 34H14.8522C14.1287 34 13.6464 33.52 13.6464 32.8V25.6C13.6464 24.88 14.1287 24.4 14.8522 24.4H67.1479C67.8713 24.4 68.3536 24.88 68.3536 25.6ZM14.8522 22H29.0686C29.7921 22 30.2744 21.52 30.2744 20.8V5.2C30.2744 4.48 29.7921 4 29.0686 4H14.8522C14.1287 4 13.6464 4.48 13.6464 5.2V20.8C13.6464 21.52 14.1287 22 14.8522 22ZM33.8918 22H48.1082C48.8317 22 49.314 21.52 49.314 20.8V5.2C49.314 4.48 48.8317 4 48.1082 4H33.8918C33.1683 4 32.686 4.48 32.686 5.2V20.8C32.686 21.52 33.1683 22 33.8918 22ZM67.1479 4H52.9314C52.2079 4 51.7256 4.48 51.7256 5.2V20.8C51.7256 21.52 52.2079 22 52.9314 22H67.1479C67.8713 22 68.3536 21.52 68.3536 20.8V5.2C68.3536 4.48 67.8713 4 67.1479 4ZM67.1479 36.4H14.8522C14.1287 36.4 13.6464 36.88 13.6464 37.6V44.8C13.6464 45.52 14.1287 46 14.8522 46H21.8338C22.5573 46 23.0396 45.52 23.0396 44.8V43.6H58.9604V44.8C58.9604 45.52 59.4427 46 60.1662 46H67.1479C67.8713 46 68.3536 45.52 68.3536 44.8V37.6C68.3536 36.88 67.8713 36.4 67.1479 36.4Z" fill="#FFBC57"/>
</g>
<defs>
<filter id="filter0_d_68_363" x="0" y="0" width="258" height="58" filterUnits="userSpaceOnUse" color-interpolation-filters="sRGB">
<feFlood flood-opacity="0" result="BackgroundImageFix"/>
<feColorMatrix in="SourceAlpha" type="matrix" values="0 0 0 0 0 0 0 0 0 0 0 0 0 0 0 0 0 0 127 0" result="hardAlpha"/>
<feOffset dy="4"/>
<feGaussianBlur stdDeviation="2"/>
<feComposite in2="hardAlpha" operator="out"/>
<feColorMatrix type="matrix" values="0 0 0 0 0 0 0 0 0 0 0 0 0 0 0 0 0 0 0.25 0"/>
<feBlend mode="normal" in2="BackgroundImageFix" result="effect1_dropShadow_68_363"/>
<feBlend mode="normal" in="SourceGraphic" in2="effect1_dropShadow_68_363" result="shape"/>
</filter>
</defs>
</svg>
