<svg width="24" height="24" viewBox="0 0 24 24" fill="none" xmlns="http://www.w3.org/2000/svg">
<path d="M19.0698 4.93002C18.1474 3.97492 17.0439 3.21309 15.8239 2.689C14.6038 2.16491 13.2916 1.88905 11.9638 1.87751C10.6361 1.86598 9.31926 2.11899 8.09029 2.6218C6.86133 3.12461 5.74481 3.86714 4.80589 4.80607C3.86696 5.745 3.12443 6.86151 2.62162 8.09048C2.11881 9.31944 1.86579 10.6362 1.87733 11.964C1.88887 13.2918 2.16473 14.604 2.68882 15.8241C3.21291 17.0441 3.97473 18.1476 4.92984 19.07C5.8523 20.0251 6.95575 20.7869 8.17579 21.311C9.39583 21.8351 10.708 22.111 12.0358 22.1225C13.3636 22.1341 14.6804 21.881 15.9094 21.3782C17.1383 20.8754 18.2549 20.1329 19.1938 19.194C20.1327 18.255 20.8752 17.1385 21.3781 15.9096C21.8809 14.6806 22.1339 13.3638 22.1223 12.036C22.1108 10.7082 21.8349 9.39601 21.3109 8.17597C20.7868 6.95593 20.0249 5.85249 19.0698 4.93002ZM17.6598 17.66C16.3519 18.9694 14.6304 19.7848 12.7886 19.9673C10.9469 20.1498 9.09884 19.6881 7.55936 18.6608C6.01987 17.6335 4.88419 16.1042 4.34581 14.3335C3.80742 12.5628 3.89964 10.6602 4.60675 8.9498C5.31386 7.23945 6.59211 5.82717 8.22373 4.95358C9.85534 4.07999 11.7394 3.79915 13.5548 4.15889C15.3703 4.51863 17.0049 5.49671 18.1801 6.92648C19.3553 8.35625 19.9984 10.1493 19.9998 12C20.0034 13.0513 19.7984 14.0929 19.3968 15.0644C18.9951 16.0359 18.4047 16.9182 17.6598 17.66Z" fill="#FFBC57"/>
<path d="M15.7099 8.29C15.617 8.19627 15.5064 8.12188 15.3845 8.07111C15.2627 8.02034 15.132 7.9942 14.9999 7.9942C14.8679 7.9942 14.7372 8.02034 14.6154 8.07111C14.4935 8.12188 14.3829 8.19627 14.2899 8.29L11.9999 10.59L9.70994 8.29C9.52164 8.1017 9.26624 7.99591 8.99994 7.99591C8.73364 7.99591 8.47824 8.1017 8.28994 8.29C8.10164 8.4783 7.99585 8.7337 7.99585 9C7.99585 9.2663 8.10164 9.5217 8.28994 9.71L10.5899 12L8.28994 14.29C8.19621 14.383 8.12182 14.4936 8.07105 14.6154C8.02028 14.7373 7.99414 14.868 7.99414 15C7.99414 15.132 8.02028 15.2627 8.07105 15.3846C8.12182 15.5064 8.19621 15.617 8.28994 15.71C8.3829 15.8037 8.4935 15.8781 8.61536 15.9289C8.73722 15.9797 8.86793 16.0058 8.99994 16.0058C9.13195 16.0058 9.26266 15.9797 9.38452 15.9289C9.50638 15.8781 9.61698 15.8037 9.70994 15.71L11.9999 13.41L14.2899 15.71C14.3829 15.8037 14.4935 15.8781 14.6154 15.9289C14.7372 15.9797 14.8679 16.0058 14.9999 16.0058C15.132 16.0058 15.2627 15.9797 15.3845 15.9289C15.5064 15.8781 15.617 15.8037 15.7099 15.71C15.8037 15.617 15.8781 15.5064 15.9288 15.3846C15.9796 15.2627 16.0057 15.132 16.0057 15C16.0057 14.868 15.9796 14.7373 15.9288 14.6154C15.8781 14.4936 15.8037 14.383 15.7099 14.29L13.4099 12L15.7099 9.71C15.8037 9.61704 15.8781 9.50644 15.9288 9.38458C15.9796 9.26272 16.0057 9.13201 16.0057 9C16.0057 8.86799 15.9796 8.73728 15.9288 8.61542C15.8781 8.49356 15.8037 8.38296 15.7099 8.29Z" fill="#2B2929"/>
</svg>
